<svg id="Calque_1" data-name="Calque 1" xmlns="http://www.w3.org/2000/svg" viewBox="0 0 307.31 131.51"><defs><style>.cls-1{fill:#cacf00;}.cls-1,.cls-2{fill-rule:evenodd;}.cls-2,.cls-5{fill:#e62733;}.cls-3{fill:#005f72;}.cls-4{fill:#1d1d1b;}.cls-6{fill:none;stroke:#1d1d1b;stroke-miterlimit:3;stroke-width:0.98px;}</style></defs><path class="cls-1" d="M238,125.61c13.88,11.51,42,8.82,69-8,16.09-10,28.89-23.45,36.44-36.83l-11.87,4.46S318,110.31,288,124.65s-54.24,8-58.71,3.21Z" transform="translate(-41.84 -41.84)"/><polyline class="cls-2" points="191.86 63.02 191.86 79.92 208.67 79.92 208.67 63.02 191.86 63.02"/><path class="cls-3" d="M255.57,104.86h4.78v16.9h-4.78Z" transform="translate(-41.84 -41.84)"/><path class="cls-3" d="M263,115.08V104.86h4.81v10.26c0,2,1.09,3,2.74,3s2.73-.92,2.73-2.92V104.86h4.84V115c0,4.9-3.06,7-7.6,7S263,119.88,263,115.08Z" transform="translate(-41.84 -41.84)"/><path class="cls-3" d="M284.46,108.77h-4.59v-3.91h14v3.91h-4.59v13h-4.79Z" transform="translate(-41.84 -41.84)"/><path class="cls-4" d="M44.38,166.46v-3.8H45v3.78c0,1.14.58,1.77,1.53,1.77s1.51-.6,1.51-1.75v-3.8h.65v3.76a2.17,2.17,0,1,1-4.33,0Z" transform="translate(-41.84 -41.84)"/><path class="cls-4" d="M51.18,162.66h.61L55,167.42v-4.76h.64v6.05h-.54l-3.24-4.87v4.87h-.63Z" transform="translate(-41.84 -41.84)"/><path class="cls-4" d="M58.18,162.66h.64v6.05h-.64Z" transform="translate(-41.84 -41.84)"/><path class="cls-4" d="M61,162.66h.71l1.78,5.15,1.78-5.15h.69l-2.18,6.09h-.6Z" transform="translate(-41.84 -41.84)"/><path class="cls-4" d="M68,162.66H71.7v.6h-3v2.11h2.72V166H68.66v2.16h3.08v.6H68Z" transform="translate(-41.84 -41.84)"/><path class="cls-4" d="M74,162.66H76a2.19,2.19,0,0,1,1.59.56,1.76,1.76,0,0,1,.48,1.25v0a1.73,1.73,0,0,1-1.44,1.74l1.63,2.48h-.78L76,166.36H74.63v2.35H74Zm2,3.11c1,0,1.53-.49,1.53-1.26v0c0-.79-.55-1.23-1.46-1.23H74.63v2.51Z" transform="translate(-41.84 -41.84)"/><path class="cls-4" d="M80,167.94l.4-.49a2.43,2.43,0,0,0,1.71.75,1.08,1.08,0,0,0,1.2-1h0c0-.5-.24-.82-1.33-1.21-1.26-.46-1.75-.91-1.75-1.77v0a1.67,1.67,0,0,1,1.82-1.59,2.63,2.63,0,0,1,1.82.68l-.39.5a2.18,2.18,0,0,0-1.45-.59,1,1,0,0,0-1.14.94v0c0,.53.27.83,1.41,1.24s1.67,1,1.67,1.76v0a1.71,1.71,0,0,1-1.87,1.65A3,3,0,0,1,80,167.94Z" transform="translate(-41.84 -41.84)"/><path class="cls-4" d="M86.29,162.66h.65v6.05h-.65Z" transform="translate(-41.84 -41.84)"/><path class="cls-4" d="M90.82,163.27h-1.7v-.61h4v.61h-1.7v5.44h-.65Z" transform="translate(-41.84 -41.84)"/><path class="cls-4" d="M95.29,162.66H99v.6h-3v2.11h2.73V166H95.94v2.16H99v.6H95.29Zm2.38-1.53.64.29-.92.77h-.5Z" transform="translate(-41.84 -41.84)"/><path class="cls-4" d="M104.58,162.66h1.82a1.89,1.89,0,0,1,2.13,1.92v0a2,2,0,0,1-2.2,2h-1.1v2.13h-.65Zm1.76,3.33a1.36,1.36,0,0,0,1.53-1.37h0c0-.88-.58-1.35-1.5-1.35h-1.14V166Z" transform="translate(-41.84 -41.84)"/><path class="cls-4" d="M111.94,162.63h.64l2.31,6.08h-.69l-.59-1.59h-2.72l-.59,1.59h-.66Zm1.45,3.9-1.14-3.06-1.15,3.06Z" transform="translate(-41.84 -41.84)"/><path class="cls-4" d="M117,162.66H119a2.17,2.17,0,0,1,1.59.56,1.72,1.72,0,0,1,.48,1.25v0a1.73,1.73,0,0,1-1.44,1.74l1.63,2.48h-.78L119,166.36h-1.37v2.35H117Zm2,3.11c1,0,1.53-.49,1.53-1.26v0c0-.79-.55-1.23-1.46-1.23h-1.37v2.51Z" transform="translate(-41.84 -41.84)"/><path class="cls-4" d="M123.48,162.66h.65v6.05h-.65Z" transform="translate(-41.84 -41.84)"/><path class="cls-4" d="M126.29,167.94l.41-.49a2.42,2.42,0,0,0,1.7.75,1.08,1.08,0,0,0,1.21-1h0c0-.5-.24-.82-1.34-1.21-1.25-.46-1.74-.91-1.74-1.77v0a1.67,1.67,0,0,1,1.82-1.59,2.59,2.59,0,0,1,1.81.68l-.38.5a2.18,2.18,0,0,0-1.46-.59,1,1,0,0,0-1.14.94v0c0,.53.27.83,1.41,1.24s1.68,1,1.68,1.76v0a1.72,1.72,0,0,1-1.88,1.65A3,3,0,0,1,126.29,167.94Z" transform="translate(-41.84 -41.84)"/><path class="cls-4" d="M132.27,165.79h2.22v.65h-2.22Z" transform="translate(-41.84 -41.84)"/><path class="cls-4" d="M136.79,162.66h3.69v.6h-3v2.11h2.73V166h-2.73v2.16h3.08v.6h-3.73Z" transform="translate(-41.84 -41.84)"/><path class="cls-4" d="M142.36,167.94l.4-.49a2.42,2.42,0,0,0,1.7.75,1.08,1.08,0,0,0,1.21-1h0c0-.5-.24-.82-1.34-1.21-1.25-.46-1.74-.91-1.74-1.77v0a1.67,1.67,0,0,1,1.82-1.59,2.63,2.63,0,0,1,1.82.68l-.39.5a2.18,2.18,0,0,0-1.45-.59,1,1,0,0,0-1.14.94v0c0,.53.26.83,1.4,1.24s1.68,1,1.68,1.76v0a1.71,1.71,0,0,1-1.87,1.65A3,3,0,0,1,142.36,167.94Z" transform="translate(-41.84 -41.84)"/><path class="cls-4" d="M149.86,163.27h-1.69v-.61h4v.61h-1.7v5.44h-.65Z" transform="translate(-41.84 -41.84)"/><path class="cls-4" d="M157.42,165.72v-.05a2.79,2.79,0,0,1,2.65-3.09,2.53,2.53,0,0,1,1.84.74l-.4.49a2.05,2.05,0,0,0-1.45-.63c-1.11,0-2,1-2,2.48v0c0,1.48.86,2.49,2,2.49a2.05,2.05,0,0,0,1.49-.67l.39.45a2.6,2.6,0,0,1-1.92.83C158.53,168.8,157.42,167.56,157.42,165.72Z" transform="translate(-41.84 -41.84)"/><path class="cls-4" d="M164,162.66h2.07a2.2,2.2,0,0,1,1.59.56,1.76,1.76,0,0,1,.47,1.25v0a1.72,1.72,0,0,1-1.43,1.74l1.62,2.48h-.78l-1.52-2.35h-1.37v2.35H164Zm2,3.11c1,0,1.52-.49,1.52-1.26v0c0-.79-.55-1.23-1.46-1.23h-1.37v2.51Z" transform="translate(-41.84 -41.84)"/><path class="cls-4" d="M170.49,162.66h3.69v.6h-3v2.11h2.73V166h-2.73v2.16h3.08v.6h-3.73Zm2.37-1.53.64.29-.91.77h-.5Z" transform="translate(-41.84 -41.84)"/><path class="cls-4" d="M177.75,163.27h-1.69v-.61h4v.61h-1.7v5.44h-.65Z" transform="translate(-41.84 -41.84)"/><path class="cls-4" d="M182.23,162.66h3.69v.6h-3v2.11h2.73V166h-2.73v2.16H186v.6h-3.73Z" transform="translate(-41.84 -41.84)"/><path class="cls-4" d="M188.26,162.66h.65v6.05h-.65Z" transform="translate(-41.84 -41.84)"/><path class="cls-4" d="M191.48,162.66h.65v5.45h2.81v.6h-3.46Z" transform="translate(-41.84 -41.84)"/><path class="cls-4" d="M87.69,110.89h17.09c10,0,16,5.91,16,14.46v.12c0,9.69-7.52,14.71-16.91,14.71h-7v12.55h-9.2V110.89m16.5,21.1c4.6,0,7.29-2.76,7.29-6.34v-.12c0-4.12-2.87-6.33-7.48-6.33H96.89V132Z" transform="translate(-41.84 -41.84)"/><polyline class="cls-4" points="83.05 69.05 114.6 69.05 114.6 77.23 92.19 77.23 92.19 85.72 111.92 85.72 111.92 93.91 92.19 93.91 92.19 102.7 114.9 102.7 114.9 110.89 83.05 110.89 83.05 69.05"/><path class="cls-4" d="M159.11,131.92v-.12c0-11.88,9-21.63,21.82-21.63,7.89,0,12.61,2.63,16.5,6.46l-5.86,6.75c-3.23-2.93-6.51-4.72-10.69-4.72-7.06,0-12.14,5.86-12.14,13v.11c0,7.18,5,13.16,12.14,13.16,4.77,0,7.7-1.92,11-4.9l5.86,5.92c-4.31,4.6-9.09,7.47-17.15,7.47a21.13,21.13,0,0,1-21.47-21.53" transform="translate(-41.84 -41.84)"/><path class="cls-4" d="M78.36,105.84,69.1,109v1.91h0v24c0,6.63-3.41,10-9,10s-9-3.53-9-10.34V110.89H41.84V134.8c0,12.31,6.88,18.58,18.11,18.58S78.3,147.17,78.3,134.5V121.19Z" transform="translate(-41.84 -41.84)"/><polyline class="cls-5" points="36.51 39.79 36.51 63.31 36.52 63.9 154.89 24.14 154.89 0 36.51 39.79"/><line class="cls-6" x1="171.4" y1="48.46" x2="171.4" y2="131.51"/><path class="cls-4" d="M237,162.7h-2.78V154h7.2v1.45H237v2.38h3.6v1.3H237Z" transform="translate(-41.84 -41.84)"/><path class="cls-4" d="M241.12,158.35c0-2.78,2.17-4.54,5.64-4.54s5.63,1.76,5.63,4.55-2.17,4.56-5.57,4.56S241.12,161.19,241.12,158.35Zm7.14,2.7a3.42,3.42,0,0,0,1.18-2.7,3.35,3.35,0,0,0-1.18-2.66,2.89,2.89,0,0,0-3,0,3.36,3.36,0,0,0-1.19,2.67c0,1.85,1.08,3.12,2.66,3.12A2.68,2.68,0,0,0,248.26,161.05Z" transform="translate(-41.84 -41.84)"/><path class="cls-4" d="M259.81,159.24V154h2.09v8.67h-2.31l-4.46-5.2v5.2H253V154h2.32Z" transform="translate(-41.84 -41.84)"/><path class="cls-4" d="M268.71,162.7h-2.78v-7.22h-3.78V154h10.33v1.45h-3.77Z" transform="translate(-41.84 -41.84)"/><path class="cls-4" d="M282.46,162.7h-2.78l-1-2.2h-4.08l-1,2.2H271.7l4-8.67h2.78Zm-7.26-3.57H278l-1.42-3.07Z" transform="translate(-41.84 -41.84)"/><path class="cls-4" d="M285.57,162.7h-2.78V154h2.78Z" transform="translate(-41.84 -41.84)"/><path class="cls-4" d="M293.68,159.24V154h2.09v8.67h-2.31L289,157.5v5.2h-2.09V154h2.32Z" transform="translate(-41.84 -41.84)"/><path class="cls-4" d="M304.56,162.7H297.1V154h7.12v1.45h-4.34v2.09h3.56v1.31h-3.56v2.38h4.68Z" transform="translate(-41.84 -41.84)"/><path class="cls-4" d="M305.31,154h4.19a3.87,3.87,0,0,1,2.35.47,1.92,1.92,0,0,1,.85,1.47,1.8,1.8,0,0,1-.79,1.42,5.26,5.26,0,0,1-2,.78,5.13,5.13,0,0,1,2.06.65,2,2,0,0,1,1.15,1.75,1.93,1.93,0,0,1-.91,1.6,3.94,3.94,0,0,1-2.43.53h-4.48Zm3,3.47c.94,0,1.61-.52,1.61-1.21a.68.68,0,0,0-.49-.69,4.44,4.44,0,0,0-1.34-.08h-.3v2Zm-.52,3.73h.56a7.37,7.37,0,0,0,1-.06c.56-.1.91-.44.91-.87,0-.81-.86-1.39-2.08-1.39h-.4Z" transform="translate(-41.84 -41.84)"/><path class="cls-4" d="M321.33,162.7h-7.47V154h2.78v7.23h4.69Z" transform="translate(-41.84 -41.84)"/><path class="cls-4" d="M329.17,162.7h-7.46V154h7.12v1.45h-4.34v2.09h3.56v1.31h-3.56v2.38h4.68Z" transform="translate(-41.84 -41.84)"/><path class="cls-4" d="M340.32,162.7h-2.78l-1-2.2h-4.08l-1,2.2h-1.86l4-8.67h2.78Zm-7.26-3.57h2.82l-1.41-3.07Z" transform="translate(-41.84 -41.84)"/><path class="cls-4" d="M349.15,159.2c0,1.58-.25,2.22-1.08,2.85a5.2,5.2,0,0,1-3.2.87,5.72,5.72,0,0,1-3.47-1c-.85-.65-1.11-1.29-1.11-2.76V154h2.78v5.17a2.35,2.35,0,0,0,.49,1.81,2,2,0,0,0,1.35.47c1.21,0,1.8-.69,1.8-2.06V154h2.44Z" transform="translate(-41.84 -41.84)"/><path class="cls-4" d="M238.17,140.55a14.11,14.11,0,0,1,1.52.78,2.46,2.46,0,0,1,1.34,2.1c0,1.65-1.6,2.65-4.27,2.65a23.72,23.72,0,0,1-3.24-.22v-1.74a5.5,5.5,0,0,0,.56.18,8.65,8.65,0,0,0,2.29.34c1.08,0,1.7-.35,1.7-.95,0-.44-.28-.69-1.29-1.15l-.68-.31c-1.92-.88-2.67-1.67-2.67-2.82,0-1.49,1.44-2.44,3.74-2.44a17.86,17.86,0,0,1,3.06.27v1.64l-.5-.14a8.5,8.5,0,0,0-2.15-.31c-.83,0-1.37.28-1.37.74s.25.58,1.21,1Z" transform="translate(-41.84 -41.84)"/><path class="cls-4" d="M249.46,145.86H242v-8.67h7.12v1.45h-4.34v2.09h3.56V142h-3.56v2.38h4.68Z" transform="translate(-41.84 -41.84)"/><path class="cls-4" d="M257.47,142.4v-5.21h2.09v8.67h-2.31l-4.46-5.2v5.2H250.7v-8.67H253Z" transform="translate(-41.84 -41.84)"/><path class="cls-4" d="M271.11,145.86h-2.78l-1-2.2h-4.07l-1,2.2h-1.86l4-8.67h2.78Zm-7.26-3.57h2.82l-1.41-3.07Z" transform="translate(-41.84 -41.84)"/><path class="cls-4" d="M281.12,145.86h-3.36l-2.25-3.46h-1v3.46h-2.61v-8.67h4.56a3.88,3.88,0,0,1,2.4.55,1.91,1.91,0,0,1,.84,1.61,2.8,2.8,0,0,1-2,2.48Zm-6.59-4.77H275c1.24,0,1.95-.53,1.95-1.46,0-.72-.51-1-1.87-1h-.54Z" transform="translate(-41.84 -41.84)"/><path class="cls-4" d="M287.38,145.86H284.6v-7.22h-3.78v-1.45h10.33v1.45h-3.77Z" transform="translate(-41.84 -41.84)"/></svg>