<svg id="Calque_1" data-name="Calque 1" xmlns="http://www.w3.org/2000/svg" viewBox="0 0 248.99 106.55"><defs><style>.cls-1,.cls-2,.cls-4{fill:#1d1d1b;}.cls-1{fill-rule:evenodd;}.cls-3{fill:#e62733;}.cls-4{stroke:#1d1d1b;stroke-miterlimit:3;stroke-width:0.32px;}</style></defs><path class="cls-1" d="M183.92,95.19c11.24,9.33,34.05,7.15,55.92-6.5,13-8.15,23.4-19,29.52-29.84l-9.61,3.61a83.8,83.8,0,0,1-35.28,31.95c-24.3,11.61-43.95,6.47-47.57,2.6Z" transform="translate(-25.01 -27.32)"/><polyline class="cls-1" points="155.46 51.06 155.46 64.75 169.07 64.75 169.07 51.06 155.46 51.06"/><path class="cls-2" d="M198.18,78.38h3.87v13.7h-3.87Z" transform="translate(-25.01 -27.32)"/><path class="cls-2" d="M204.22,86.66V78.38h3.9V86.7c0,1.64.88,2.42,2.22,2.42s2.21-.74,2.21-2.37V78.38h3.92V86.6c0,4-2.47,5.71-6.15,5.71S204.22,90.55,204.22,86.66Z" transform="translate(-25.01 -27.32)"/><path class="cls-2" d="M221.59,81.55h-3.72V78.38h11.32v3.17h-3.72V92.08h-3.88Z" transform="translate(-25.01 -27.32)"/><path class="cls-2" d="M27.06,128.29v-3.07h.53v3.05c0,.93.46,1.44,1.23,1.44s1.23-.48,1.23-1.42v-3.07h.53v3a1.77,1.77,0,1,1-3.52,0Z" transform="translate(-25.01 -27.32)"/><path class="cls-2" d="M32.57,125.22h.5l2.56,3.85v-3.85h.52v4.89h-.44l-2.63-3.94v3.94h-.51Z" transform="translate(-25.01 -27.32)"/><path class="cls-2" d="M38.24,125.22h.53v4.89h-.53Z" transform="translate(-25.01 -27.32)"/><path class="cls-2" d="M40.5,125.22h.57l1.44,4.16L44,125.22h.55l-1.76,4.93h-.48Z" transform="translate(-25.01 -27.32)"/><path class="cls-2" d="M46.21,125.22h3v.48H46.73v1.7h2.21v.48H46.73v1.75h2.5v.48h-3Z" transform="translate(-25.01 -27.32)"/><path class="cls-2" d="M51.05,125.22h1.67a1.75,1.75,0,0,1,1.29.45,1.41,1.41,0,0,1,.38,1h0a1.4,1.4,0,0,1-1.16,1.42l1.32,2h-.63l-1.24-1.9H51.57v1.9h-.52Zm1.58,2.51c.8,0,1.24-.39,1.24-1h0c0-.65-.45-1-1.19-1H51.57v2Z" transform="translate(-25.01 -27.32)"/><path class="cls-2" d="M55.94,129.49l.33-.4a1.92,1.92,0,0,0,1.38.61.88.88,0,0,0,1-.82h0c0-.41-.2-.67-1.09-1s-1.41-.74-1.41-1.44h0a1.36,1.36,0,0,1,1.48-1.3,2.15,2.15,0,0,1,1.47.56l-.32.4a1.77,1.77,0,0,0-1.18-.47.82.82,0,0,0-.92.76v0c0,.42.22.67,1.14,1s1.36.77,1.36,1.42v0a1.39,1.39,0,0,1-1.52,1.33A2.38,2.38,0,0,1,55.94,129.49Z" transform="translate(-25.01 -27.32)"/><path class="cls-2" d="M61,125.22h.53v4.89H61Z" transform="translate(-25.01 -27.32)"/><path class="cls-2" d="M64.69,125.7H63.32v-.48h3.27v.48H65.21v4.41h-.52Z" transform="translate(-25.01 -27.32)"/><path class="cls-2" d="M68.32,125.22h3v.48H68.84v1.7h2.21v.48H68.84v1.75h2.5v.48h-3ZM70.24,124l.52.24-.74.62h-.41Z" transform="translate(-25.01 -27.32)"/><path class="cls-2" d="M75.84,125.22h1.48A1.53,1.53,0,0,1,79,126.77h0a1.61,1.61,0,0,1-1.78,1.61h-.89v1.72h-.53Zm1.43,2.69a1.1,1.1,0,0,0,1.24-1.11h0c0-.71-.48-1.09-1.22-1.09h-.92v2.21Z" transform="translate(-25.01 -27.32)"/><path class="cls-2" d="M81.81,125.19h.51l1.87,4.92h-.56l-.47-1.28H81l-.47,1.28h-.54ZM83,128.35l-.92-2.48-.93,2.48Z" transform="translate(-25.01 -27.32)"/><path class="cls-2" d="M85.89,125.22h1.67a1.75,1.75,0,0,1,1.29.45,1.41,1.41,0,0,1,.38,1h0a1.4,1.4,0,0,1-1.16,1.42l1.32,2h-.63l-1.23-1.9H86.41v1.9h-.52Zm1.58,2.51c.8,0,1.24-.39,1.24-1h0c0-.65-.45-1-1.18-1H86.41v2Z" transform="translate(-25.01 -27.32)"/><path class="cls-2" d="M91.15,125.22h.53v4.89h-.53Z" transform="translate(-25.01 -27.32)"/><path class="cls-2" d="M93.43,129.49l.34-.4a1.91,1.91,0,0,0,1.37.61.88.88,0,0,0,1-.82h0c0-.41-.19-.67-1.08-1s-1.42-.74-1.42-1.44h0a1.36,1.36,0,0,1,1.48-1.3,2.11,2.11,0,0,1,1.47.56l-.31.4a1.79,1.79,0,0,0-1.18-.47.82.82,0,0,0-.92.76v0c0,.42.21.67,1.14,1s1.35.77,1.35,1.42v0a1.38,1.38,0,0,1-1.51,1.33A2.42,2.42,0,0,1,93.43,129.49Z" transform="translate(-25.01 -27.32)"/><path class="cls-2" d="M98.28,127.75h1.8v.52h-1.8Z" transform="translate(-25.01 -27.32)"/><path class="cls-2" d="M101.94,125.22h3v.48h-2.46v1.7h2.21v.48h-2.21v1.75H105v.48h-3Z" transform="translate(-25.01 -27.32)"/><path class="cls-2" d="M106.45,129.49l.33-.4a1.92,1.92,0,0,0,1.38.61.88.88,0,0,0,1-.82h0c0-.41-.2-.67-1.09-1s-1.41-.74-1.41-1.44h0a1.35,1.35,0,0,1,1.48-1.3,2.11,2.11,0,0,1,1.46.56l-.31.4a1.77,1.77,0,0,0-1.18-.47.82.82,0,0,0-.92.76v0c0,.42.22.67,1.14,1s1.36.77,1.36,1.42v0a1.39,1.39,0,0,1-1.52,1.33A2.38,2.38,0,0,1,106.45,129.49Z" transform="translate(-25.01 -27.32)"/><path class="cls-2" d="M112.53,125.7h-1.37v-.48h3.28v.48h-1.38v4.41h-.53Z" transform="translate(-25.01 -27.32)"/><path class="cls-2" d="M118.65,127.69v0a2.27,2.27,0,0,1,2.15-2.51,2,2,0,0,1,1.49.61l-.32.4a1.63,1.63,0,0,0-1.18-.51c-.9,0-1.59.82-1.59,2v0c0,1.21.69,2,1.59,2a1.67,1.67,0,0,0,1.21-.54l.32.36a2.07,2.07,0,0,1-1.55.67A2.23,2.23,0,0,1,118.65,127.69Z" transform="translate(-25.01 -27.32)"/><path class="cls-2" d="M124,125.22h1.67a1.75,1.75,0,0,1,1.29.45,1.38,1.38,0,0,1,.39,1h0a1.41,1.41,0,0,1-1.17,1.42l1.32,2h-.63l-1.23-1.9h-1.11v1.9H124Zm1.58,2.51c.8,0,1.24-.39,1.24-1h0c0-.65-.45-1-1.18-1h-1.11v2Z" transform="translate(-25.01 -27.32)"/><path class="cls-2" d="M129.24,125.22h3v.48h-2.46v1.7H132v.48h-2.21v1.75h2.5v.48h-3Zm1.93-1.25.52.24-.75.62h-.4Z" transform="translate(-25.01 -27.32)"/><path class="cls-2" d="M135.13,125.7h-1.37v-.48H137v.48h-1.38v4.41h-.52Z" transform="translate(-25.01 -27.32)"/><path class="cls-2" d="M138.76,125.22h3v.48h-2.46v1.7h2.21v.48h-2.21v1.75h2.5v.48h-3Z" transform="translate(-25.01 -27.32)"/><path class="cls-2" d="M143.64,125.22h.53v4.89h-.53Z" transform="translate(-25.01 -27.32)"/><path class="cls-2" d="M146.25,125.22h.53v4.41h2.27v.48h-2.8Z" transform="translate(-25.01 -27.32)"/><path class="cls-2" d="M62.16,83.26H76c8.1,0,13,4.8,13,11.73v.09c0,7.85-6.1,11.92-13.71,11.92H69.61v10.17H62.16V83.26m13.36,17.1c3.73,0,5.91-2.23,5.91-5.13v-.1c0-3.34-2.32-5.13-6.06-5.13H69.61v10.36Z" transform="translate(-25.01 -27.32)"/><polyline class="cls-2" points="67.29 55.94 92.86 55.94 92.86 62.58 74.7 62.58 74.7 69.46 90.68 69.46 90.68 76.09 74.7 76.09 74.7 83.21 93.1 83.21 93.1 89.85 67.29 89.85 67.29 55.94"/><path class="cls-2" d="M120,100.31v-.1A17.23,17.23,0,0,1,137.7,82.68c6.4,0,10.22,2.13,13.37,5.24l-4.74,5.47c-2.62-2.38-5.28-3.83-8.67-3.83-5.72,0-9.84,4.75-9.84,10.56v.09c0,5.81,4,10.66,9.84,10.66,3.87,0,6.24-1.55,8.91-4l4.75,4.79a17.32,17.32,0,0,1-13.9,6.06A17.11,17.11,0,0,1,120,100.31" transform="translate(-25.01 -27.32)"/><path class="cls-2" d="M54.59,79.18l-7.5,2.54v1.54h0v19.43c0,5.37-2.76,8.13-7.31,8.13s-7.31-2.86-7.31-8.38V83.26H25v19.38c0,10,5.57,15.06,14.67,15.06s14.87-5,14.87-15.31V91.61Z" transform="translate(-25.01 -27.32)"/><polyline class="cls-3" points="29.58 32.24 29.58 51.3 29.59 51.78 125.5 19.56 125.5 0 29.58 32.24"/><line class="cls-4" x1="138.88" y1="39.26" x2="138.88" y2="106.55"/><path class="cls-2" d="M183.13,125.25h-2.25v-7h5.84v1.18h-3.59v1.92h2.92v1.06h-2.92Z" transform="translate(-25.01 -27.32)"/><path class="cls-2" d="M186.47,121.72c0-2.26,1.76-3.68,4.57-3.68s4.57,1.42,4.57,3.69-1.77,3.69-4.52,3.69S186.47,124,186.47,121.72Zm5.79,2.19a2.78,2.78,0,0,0,1-2.19,2.75,2.75,0,0,0-1-2.16,2.19,2.19,0,0,0-1.22-.34,2.16,2.16,0,0,0-1.21.34,2.77,2.77,0,0,0-1,2.17,2.25,2.25,0,0,0,2.16,2.52A2.18,2.18,0,0,0,192.26,123.91Z" transform="translate(-25.01 -27.32)"/><path class="cls-2" d="M201.62,122.44v-4.22h1.69v7h-1.87L197.82,121v4.22h-1.69v-7H198Z" transform="translate(-25.01 -27.32)"/><path class="cls-2" d="M208.83,125.25h-2.26V119.4h-3.06v-1.18h8.37v1.18h-3Z" transform="translate(-25.01 -27.32)"/><path class="cls-2" d="M220,125.25h-2.25l-.83-1.79h-3.31l-.82,1.79h-1.51l3.23-7h2.26Zm-5.88-2.9h2.28l-1.14-2.49Z" transform="translate(-25.01 -27.32)"/><path class="cls-2" d="M222.49,125.25h-2.26v-7h2.26Z" transform="translate(-25.01 -27.32)"/><path class="cls-2" d="M229.06,122.44v-4.22h1.69v7h-1.87L225.26,121v4.22h-1.69v-7h1.88Z" transform="translate(-25.01 -27.32)"/><path class="cls-2" d="M237.88,125.25h-6v-7h5.77v1.18h-3.52v1.69H237v1.06h-2.89v1.93h3.8Z" transform="translate(-25.01 -27.32)"/><path class="cls-2" d="M238.48,118.22h3.4a3.17,3.17,0,0,1,1.9.38,1.55,1.55,0,0,1,.69,1.19,1.47,1.47,0,0,1-.64,1.15,4.11,4.11,0,0,1-1.61.63,4.36,4.36,0,0,1,1.67.53,1.65,1.65,0,0,1,.93,1.42,1.58,1.58,0,0,1-.74,1.3,3.23,3.23,0,0,1-2,.43h-3.63Zm2.46,2.81c.76,0,1.31-.42,1.31-1a.55.55,0,0,0-.4-.56,3.81,3.81,0,0,0-1.08-.06h-.25V121Zm-.42,3H241a5.27,5.27,0,0,0,.82,0c.45-.07.73-.35.73-.7,0-.66-.7-1.12-1.68-1.12h-.33Z" transform="translate(-25.01 -27.32)"/><path class="cls-2" d="M251.46,125.25h-6.05v-7h2.26v5.86h3.79Z" transform="translate(-25.01 -27.32)"/><path class="cls-2" d="M257.82,125.25h-6v-7h5.77v1.18H254v1.69h2.89v1.06H254v1.93h3.8Z" transform="translate(-25.01 -27.32)"/><path class="cls-2" d="M266.85,125.25h-2.26l-.82-1.79h-3.31l-.83,1.79h-1.5l3.23-7h2.25Zm-5.89-2.9h2.29l-1.14-2.49Z" transform="translate(-25.01 -27.32)"/><path class="cls-2" d="M274,122.41c0,1.28-.2,1.8-.88,2.31a4.18,4.18,0,0,1-2.59.7,4.59,4.59,0,0,1-2.81-.78,2.31,2.31,0,0,1-.9-2.23v-4.19h2.25v4.19a1.93,1.93,0,0,0,.4,1.47,1.6,1.6,0,0,0,1.1.37c1,0,1.46-.55,1.46-1.67v-4.36h2Z" transform="translate(-25.01 -27.32)"/><path class="cls-2" d="M184.08,107.3a11.54,11.54,0,0,1,1.23.63,2,2,0,0,1,1.09,1.7c0,1.34-1.3,2.15-3.46,2.15a18.48,18.48,0,0,1-2.62-.18v-1.41l.45.15a7.27,7.27,0,0,0,1.86.27c.87,0,1.37-.28,1.37-.76s-.23-.57-1.05-.94l-.55-.25c-1.55-.71-2.16-1.35-2.16-2.29,0-1.2,1.17-2,3-2a14.31,14.31,0,0,1,2.48.22V106l-.41-.12a7.21,7.21,0,0,0-1.73-.25c-.68,0-1.11.23-1.11.6s.19.47,1,.84Z" transform="translate(-25.01 -27.32)"/><path class="cls-2" d="M193.23,111.6h-6v-7H193v1.17h-3.51v1.69h2.88v1.06h-2.88v1.93h3.79Z" transform="translate(-25.01 -27.32)"/><path class="cls-2" d="M199.72,108.79v-4.21h1.69v7h-1.87l-3.61-4.21v4.21h-1.7v-7h1.88Z" transform="translate(-25.01 -27.32)"/><path class="cls-2" d="M210.77,111.6h-2.25l-.83-1.78h-3.3l-.83,1.78h-1.51l3.23-7h2.26Zm-5.88-2.89h2.28L206,106.22Z" transform="translate(-25.01 -27.32)"/><path class="cls-2" d="M218.88,111.6h-2.72l-1.82-2.81h-.8v2.81h-2.11v-7h3.69a3.14,3.14,0,0,1,1.95.44,1.56,1.56,0,0,1,.67,1.31,2.26,2.26,0,0,1-1.57,2Zm-5.34-3.87h.38c1,0,1.57-.42,1.57-1.18,0-.58-.41-.8-1.51-.8h-.44Z" transform="translate(-25.01 -27.32)"/><path class="cls-2" d="M224,111.6H221.7v-5.85h-3.06v-1.17H227v1.17H224Z" transform="translate(-25.01 -27.32)"/></svg>