<svg id="Calque_1" data-name="Calque 1" xmlns="http://www.w3.org/2000/svg" viewBox="0 0 443.2 187.88"><defs><style>.cls-1{fill:#fff;}</style></defs><path class="cls-1" d="M329.29,157.42v7c0,2.26.48,3.36,2.1,3.36,1.4,0,2.11-.83,2.11-3.06v-7.25h2.79V165c0,1.06,0,4.68-5,4.68-3,0-5.25-1.4-5.25-4.68v-7.62Z" transform="translate(-59.48 -59.11)"/><path class="cls-1" d="M339.74,157.42h2.67l5.1,7.2h0v-7.2H350v12H347.3l-5.12-7.21h0v7.21h-2.41Z" transform="translate(-59.48 -59.11)"/><path class="cls-1" d="M353.41,157.42h3.2v12h-3.2Z" transform="translate(-59.48 -59.11)"/><path class="cls-1" d="M358.91,157.42h3.41l3.15,8.75h0l3.08-8.75h2.13l-4.25,12h-3.21Z" transform="translate(-59.48 -59.11)"/><path class="cls-1" d="M372.93,157.42h8.2v2h-5v2.92h4.1v1.79h-4.1v3.31h5.4v2h-8.6Z" transform="translate(-59.48 -59.11)"/><path class="cls-1" d="M384.3,157.42H390a3,3,0,0,1,3.27,3,3.9,3.9,0,0,1-2.24,3.42l3.85,5.58H391l-2.59-4.8H387.3v4.8h-3Zm3,5.41h1.06c1.12,0,1.71-1.18,1.71-2.06s-.36-1.36-1.79-1.36h-1Z" transform="translate(-59.48 -59.11)"/><path class="cls-1" d="M396.55,167a8.72,8.72,0,0,0,3.25.72c.85,0,2-.24,2-1.32,0-1.94-5.34-2.14-5.34-5.92,0-2.41,2.16-3.37,4.26-3.37a20.38,20.38,0,0,1,3.57.36v2.28a9.26,9.26,0,0,0-3.07-.65c-.63,0-1.56.25-1.56,1,0,1.81,5.55,2,5.55,6,0,1.21-.63,3.62-4.92,3.62a22.71,22.71,0,0,1-3.73-.3Z" transform="translate(-59.48 -59.11)"/><path class="cls-1" d="M407.67,157.42h3.2v12h-3.2Z" transform="translate(-59.48 -59.11)"/><path class="cls-1" d="M417.43,159.42h-4.35v-2H425v2h-4.35v10h-3.2Z" transform="translate(-59.48 -59.11)"/><path class="cls-1" d="M427.19,157.42h8.2v2h-5v2.92h4.1v1.79h-4.1v3.31h5.39v2h-8.6Zm4.12-3.14h2.49l-2.39,2.39H429.5Z" transform="translate(-59.48 -59.11)"/><path class="cls-1" d="M326.08,181.22h5.36c2.24,0,3.59.84,3.59,3.2a3.9,3.9,0,0,1-4.18,4.15h-1.76v4.65h-3Zm3,5.56c1.11,0,2.74-.14,2.74-2.11,0-1.1-.82-1.46-1.8-1.46a5,5,0,0,0-.94.11Z" transform="translate(-59.48 -59.11)"/><path class="cls-1" d="M339.58,181.22h3.2l4.6,12h-3.22L343,190.16h-4.7l-1.18,3.06H335Zm2.69,7.05L340.64,184,339,188.27Z" transform="translate(-59.48 -59.11)"/><path class="cls-1" d="M349.65,181.22h5.71a3,3,0,0,1,3.28,3,3.89,3.89,0,0,1-2.25,3.42l3.86,5.58h-3.87l-2.59-4.8h-1.13v4.8h-3Zm3,5.41h1.06c1.11,0,1.71-1.18,1.71-2.06s-.36-1.36-1.79-1.36h-1Z" transform="translate(-59.48 -59.11)"/><path class="cls-1" d="M362.5,181.22h3.21v12H362.5Z" transform="translate(-59.48 -59.11)"/><path class="cls-1" d="M368.56,190.81a8.73,8.73,0,0,0,3.26.72c.84,0,2-.24,2-1.32,0-1.94-5.35-2.14-5.35-5.92,0-2.41,2.16-3.37,4.27-3.37a20.48,20.48,0,0,1,3.57.36v2.28a9.32,9.32,0,0,0-3.07-.65c-.64,0-1.57.25-1.57,1,0,1.81,5.55,2,5.55,6,0,1.21-.63,3.62-4.91,3.62a22.75,22.75,0,0,1-3.74-.3Z" transform="translate(-59.48 -59.11)"/><path class="cls-1" d="M378.89,187.13h3.6v1.79h-3.6Z" transform="translate(-59.48 -59.11)"/><path class="cls-1" d="M385.14,181.22h8.2v2h-5v2.92h4.1v1.79h-4.1v3.31h5.39v2h-8.6Z" transform="translate(-59.48 -59.11)"/><path class="cls-1" d="M395.92,190.81a8.72,8.72,0,0,0,3.25.72c.85,0,2-.24,2-1.32,0-1.94-5.34-2.14-5.34-5.92,0-2.41,2.16-3.37,4.26-3.37a20.38,20.38,0,0,1,3.57.36v2.28a9.26,9.26,0,0,0-3.07-.65c-.63,0-1.56.25-1.56,1,0,1.81,5.55,2,5.55,6,0,1.21-.64,3.62-4.92,3.62a22.71,22.71,0,0,1-3.73-.3Z" transform="translate(-59.48 -59.11)"/><path class="cls-1" d="M410.14,183.22h-4.35v-2H417.7v2h-4.35v10h-3.21Z" transform="translate(-59.48 -59.11)"/><path class="cls-1" d="M436.25,183.62a10.13,10.13,0,0,0-3.56-.71c-2.91,0-3.82,2.07-3.82,4.23,0,2.69,1.41,4.39,4.15,4.39a8.29,8.29,0,0,0,3.43-.87v2.21a14.06,14.06,0,0,1-4.48.65c-3.9,0-6.51-2.31-6.51-6.29s2.61-6.31,6.51-6.31a19.53,19.53,0,0,1,4.28.4Z" transform="translate(-59.48 -59.11)"/><path class="cls-1" d="M439,181.22h5.71a3,3,0,0,1,3.27,3,3.9,3.9,0,0,1-2.24,3.42l3.85,5.58H445.7l-2.59-4.8H442v4.8h-3Zm3,5.41H443c1.12,0,1.71-1.18,1.71-2.06s-.36-1.36-1.79-1.36h-1Z" transform="translate(-59.48 -59.11)"/><path class="cls-1" d="M451.83,181.22H460v2h-5v2.92h4.1v1.79H455v3.31h5.39v2h-8.59Zm4.11-3.14h2.49L456,180.47h-1.91Z" transform="translate(-59.48 -59.11)"/><path class="cls-1" d="M466.3,183.22H462v-2h11.9v2H469.5v10h-3.2Z" transform="translate(-59.48 -59.11)"/><path class="cls-1" d="M476.06,181.22h8.2v2h-5v2.92h4.11v1.79h-4.11v3.31h5.4v2h-8.6Z" transform="translate(-59.48 -59.11)"/><path class="cls-1" d="M487.43,181.22h3.21v12h-3.21Z" transform="translate(-59.48 -59.11)"/><path class="cls-1" d="M494.09,181.22h3.2v10h5.4v2h-8.6Z" transform="translate(-59.48 -59.11)"/><path class="cls-1" d="M324.94,205h3.4l3.15,8.74h0l3.08-8.74h2.13l-4.25,12h-3.2Z" transform="translate(-59.48 -59.11)"/><path class="cls-1" d="M341.14,205h3.2l4.6,12h-3.22L344.56,214h-4.7L338.68,217h-2.14Zm2.69,7-1.63-4.25-1.63,4.25Z" transform="translate(-59.48 -59.11)"/><path class="cls-1" d="M351.21,205h3.21v10h5.39v2h-8.6Z" transform="translate(-59.48 -59.11)"/><path class="cls-1" d="M368.53,205h6.54c1.66,0,5.06,1,5.06,5.79,0,4.22-2.54,6.21-5.64,6.21h-6Zm3.2,9.89a12.21,12.21,0,0,0,1.54.12c2.76,0,3.46-2.1,3.46-4.1,0-1.68-.53-3.92-3.37-3.92h-1.63Z" transform="translate(-59.48 -59.11)"/><path class="cls-1" d="M382.79,205H391v2h-5v2.92h4.1v1.79H386V215h5.4v2h-8.6Z" transform="translate(-59.48 -59.11)"/><path class="cls-1" d="M400.51,205h4.14l2.51,7.65h0l2.56-7.65h3.58v12h-2.9v-8.4h0l-2.57,7.6H405.5L403,208.4h0V217h-2.41Z" transform="translate(-59.48 -59.11)"/><path class="cls-1" d="M420.2,205h3.21L428,217h-3.22L423.62,214h-4.7L417.75,217H415.6Zm2.69,7-1.63-4.25-1.62,4.25Z" transform="translate(-59.48 -59.11)"/><path class="cls-1" d="M430.28,205H436a3,3,0,0,1,3.27,3,3.9,3.9,0,0,1-2.24,3.42l3.85,5.58H437l-2.59-4.8h-1.13V217h-3Zm3,5.41h1.06c1.12,0,1.72-1.18,1.72-2.06s-.37-1.36-1.8-1.36h-1Z" transform="translate(-59.48 -59.11)"/><path class="cls-1" d="M443.13,205h2.67l5.1,7.2h0V205h2.41v12h-2.66l-5.11-7.21h0V217h-2.4Z" transform="translate(-59.48 -59.11)"/><path class="cls-1" d="M456.79,205H465v2h-5v2.92h4.1v1.79H460V215h5.4v2h-8.6Z" transform="translate(-59.48 -59.11)"/><path class="cls-1" d="M60.43,241.43a9,9,0,0,1,2.65-6.25,7.86,7.86,0,0,1,5.54-2.39,5.36,5.36,0,0,1,5,3l-.88.47a4.44,4.44,0,0,0-4.21-2.51,6.66,6.66,0,0,0-4.68,2,8.17,8.17,0,0,0-2.39,5.66,4.4,4.4,0,0,0,4.64,4.66A6.11,6.11,0,0,0,70.77,244l.69.63A7.13,7.13,0,0,1,66,247,5.38,5.38,0,0,1,60.43,241.43Z" transform="translate(-59.48 -59.11)"/><path class="cls-1" d="M85.23,240.94a6.08,6.08,0,0,1-1.82,4.25A5.9,5.9,0,0,1,79.3,247a4.25,4.25,0,0,1-4.44-4.43,6,6,0,0,1,1.82-4.24,5.84,5.84,0,0,1,4.11-1.78A4.24,4.24,0,0,1,85.23,240.94Zm-2.6,3.7A5.21,5.21,0,0,0,84.19,241a3.29,3.29,0,0,0-3.5-3.56,4.64,4.64,0,0,0-3.23,1.42,5.25,5.25,0,0,0-1.57,3.67,3.29,3.29,0,0,0,3.51,3.56A4.66,4.66,0,0,0,82.63,244.64Z" transform="translate(-59.48 -59.11)"/><path class="cls-1" d="M90.38,236.75h1l-.48,1.86a4.79,4.79,0,0,1,3.77-2.09,3,3,0,0,1,3.27,3.17,6.1,6.1,0,0,1-.21,1.41l-1.49,5.63h-1L96.76,241a5.26,5.26,0,0,0,.15-1.24,2.3,2.3,0,0,0-2.56-2.4,4.82,4.82,0,0,0-4.17,3.72l-1.51,5.63h-1Z" transform="translate(-59.48 -59.11)"/><path class="cls-1" d="M103.31,236.75h1l-.49,1.86a4.82,4.82,0,0,1,3.78-2.09,3,3,0,0,1,3.27,3.17,6.14,6.14,0,0,1-.22,1.41l-1.48,5.63h-1l1.52-5.71a5.27,5.27,0,0,0,.16-1.24,2.3,2.3,0,0,0-2.56-2.4,4.8,4.8,0,0,0-4.17,3.72l-1.51,5.63h-1Z" transform="translate(-59.48 -59.11)"/><path class="cls-1" d="M113.54,244.17a3.3,3.3,0,0,1,1-2.37,5,5,0,0,1,3.55-1.25,14.61,14.61,0,0,1,3.83.57l.08-.28a4.38,4.38,0,0,0,.14-1c0-1.5-1.06-2.35-3-2.35a8.33,8.33,0,0,0-2.89.53l-.18-.86a8.84,8.84,0,0,1,3.15-.57c2.45,0,3.88,1.2,3.88,3.12a5.5,5.5,0,0,1-.2,1.31l-1.52,5.71h-.94l.45-1.72a5.12,5.12,0,0,1-4,2C115.15,247,113.54,246,113.54,244.17Zm7.91-1.41.24-.88a15.38,15.38,0,0,0-3.78-.47,3.63,3.63,0,0,0-2.64.94,2.36,2.36,0,0,0-.71,1.7c0,1.24.94,2,2.43,2A4.72,4.72,0,0,0,121.45,242.76Z" transform="translate(-59.48 -59.11)"/><path class="cls-1" d="M128.56,236.75h.95l-2.68,10h-1Zm.94-3.92h1.19l-.35,1.32h-1.2Z" transform="translate(-59.48 -59.11)"/><path class="cls-1" d="M131.14,245.23l.68-.69a5.14,5.14,0,0,0,3.66,1.53c1.28,0,2.59-.78,2.59-2,0-.76-.43-1.33-2.18-2s-2.8-1.37-2.8-2.68c0-1.58,1.45-2.89,3.7-2.89a5.86,5.86,0,0,1,3.61,1.33l-.63.72a5,5,0,0,0-3.07-1.17c-1.69,0-2.59.92-2.59,1.86,0,.76.39,1.23,2.25,1.95s2.73,1.51,2.73,2.7c0,1.75-1.71,3-3.72,3A6,6,0,0,1,131.14,245.23Z" transform="translate(-59.48 -59.11)"/><path class="cls-1" d="M141.61,245.23l.68-.69a5.14,5.14,0,0,0,3.66,1.53c1.28,0,2.59-.78,2.59-2,0-.76-.43-1.33-2.18-2s-2.8-1.37-2.8-2.68c0-1.58,1.45-2.89,3.7-2.89a5.88,5.88,0,0,1,3.61,1.33l-.63.72a5,5,0,0,0-3.07-1.17c-1.69,0-2.59.92-2.59,1.86,0,.76.39,1.23,2.25,1.95s2.73,1.51,2.73,2.7c0,1.75-1.71,3-3.72,3A6,6,0,0,1,141.61,245.23Z" transform="translate(-59.48 -59.11)"/><path class="cls-1" d="M152.7,244.17a3.3,3.3,0,0,1,1-2.37,5,5,0,0,1,3.55-1.25,14.67,14.67,0,0,1,3.83.57l.08-.28a4.38,4.38,0,0,0,.14-1c0-1.5-1.06-2.35-3-2.35a8.33,8.33,0,0,0-2.89.53l-.18-.86a8.84,8.84,0,0,1,3.15-.57c2.45,0,3.88,1.2,3.88,3.12A5.5,5.5,0,0,1,162,241l-1.52,5.71h-.94L160,245a5.13,5.13,0,0,1-4,2C154.31,247,152.7,246,152.7,244.17Zm7.91-1.41.24-.88a15.38,15.38,0,0,0-3.78-.47,3.63,3.63,0,0,0-2.64.94,2.36,2.36,0,0,0-.71,1.7c0,1.24.94,2,2.43,2A4.73,4.73,0,0,0,160.61,242.76Z" transform="translate(-59.48 -59.11)"/><path class="cls-1" d="M167.56,236.75h1l-.49,1.86a4.8,4.8,0,0,1,3.78-2.09,3,3,0,0,1,3.26,3.17,6.1,6.1,0,0,1-.21,1.41l-1.49,5.63h-1l1.53-5.71a5.27,5.27,0,0,0,.16-1.24,2.31,2.31,0,0,0-2.57-2.4,4.82,4.82,0,0,0-4.17,3.72l-1.51,5.63h-1Z" transform="translate(-59.48 -59.11)"/><path class="cls-1" d="M178.32,242.66a6.25,6.25,0,0,1,1.86-4.4,5.73,5.73,0,0,1,4-1.74,4.2,4.2,0,0,1,3.92,2.4l-.8.45a3.46,3.46,0,0,0-3.18-2,4.57,4.57,0,0,0-3.19,1.4,5.41,5.41,0,0,0-1.58,3.78,3.28,3.28,0,0,0,3.36,3.47,4.6,4.6,0,0,0,3.23-1.43l.65.63a5.59,5.59,0,0,1-3.93,1.7A4.23,4.23,0,0,1,178.32,242.66Z" transform="translate(-59.48 -59.11)"/><path class="cls-1" d="M191.2,242.07a3.94,3.94,0,0,0,0,.67,3.14,3.14,0,0,0,3.31,3.33,5,5,0,0,0,3.4-1.33l.57.68a5.8,5.8,0,0,1-4,1.55,4.09,4.09,0,0,1-4.35-4.19,6.61,6.61,0,0,1,1.94-4.58,5.43,5.43,0,0,1,3.84-1.68,3.58,3.58,0,0,1,3.77,3.81,5.09,5.09,0,0,1-.27,1.74Zm.17-.86h7.25a3.85,3.85,0,0,0,.07-.82,2.71,2.71,0,0,0-2.81-3,4.29,4.29,0,0,0-3.08,1.33A5.63,5.63,0,0,0,191.37,241.21Z" transform="translate(-59.48 -59.11)"/><path class="cls-1" d="M206.21,240.37h5.24l-.29,1.1h-5.25Z" transform="translate(-59.48 -59.11)"/><path class="cls-1" d="M225,232.93h1l2.69,13.8h-1l-.71-3.83h-8.08l-2.78,3.83h-1.14Zm1.72,9-1.47-7.93L219.51,242Z" transform="translate(-59.48 -59.11)"/><path class="cls-1" d="M232,242.66a6.25,6.25,0,0,1,1.86-4.4,5.69,5.69,0,0,1,4-1.74,4.2,4.2,0,0,1,3.92,2.4l-.81.45a3.43,3.43,0,0,0-3.17-2,4.57,4.57,0,0,0-3.19,1.4,5.42,5.42,0,0,0-1.59,3.78,3.29,3.29,0,0,0,3.37,3.47,4.62,4.62,0,0,0,3.23-1.43l.65.63a5.59,5.59,0,0,1-3.94,1.7A4.22,4.22,0,0,1,232,242.66Z" transform="translate(-59.48 -59.11)"/><path class="cls-1" d="M244.68,244.93a4.75,4.75,0,0,1,.12-1l1.7-6.34h-1.45l.24-.88h1.44l.87-3.19h1l-.86,3.19h3.45l-.24.88h-3.44l-1.7,6.36a4.26,4.26,0,0,0-.1.84c0,.83.62,1.2,1.62,1.2a4.16,4.16,0,0,0,1.45-.31l-.25.94a3.75,3.75,0,0,1-1.41.25C245.74,246.91,244.68,246.3,244.68,244.93Z" transform="translate(-59.48 -59.11)"/><path class="cls-1" d="M255.07,236.75h1l-2.68,10h-1Zm.94-3.92h1.2l-.36,1.32h-1.19Z" transform="translate(-59.48 -59.11)"/><path class="cls-1" d="M269,240.94a6.12,6.12,0,0,1-1.82,4.25,5.92,5.92,0,0,1-4.11,1.78,4.25,4.25,0,0,1-4.45-4.43,6.08,6.08,0,0,1,1.82-4.24,5.88,5.88,0,0,1,4.11-1.78A4.24,4.24,0,0,1,269,240.94Zm-2.61,3.7A5.22,5.22,0,0,0,268,241a3.29,3.29,0,0,0-3.51-3.56,4.62,4.62,0,0,0-3.22,1.42,5.25,5.25,0,0,0-1.57,3.67,3.29,3.29,0,0,0,3.5,3.56A4.64,4.64,0,0,0,266.4,244.64Z" transform="translate(-59.48 -59.11)"/><path class="cls-1" d="M274.15,236.75h1l-.49,1.86a4.82,4.82,0,0,1,3.78-2.09,3,3,0,0,1,3.27,3.17,6.14,6.14,0,0,1-.22,1.41L280,246.73H279l1.52-5.71a5.27,5.27,0,0,0,.16-1.24,2.3,2.3,0,0,0-2.56-2.4A4.8,4.8,0,0,0,274,241.1l-1.51,5.63h-1Z" transform="translate(-59.48 -59.11)"/><path class="cls-1" d="M124.81,157.42h24.35c14.22,0,22.83,8.44,22.83,20.61v.17c0,13.8-10.74,21-24.11,21h-10V217H124.81Zm23.5,30.07c6.56,0,10.39-3.92,10.39-9v-.17c0-5.88-4.09-9-10.65-9H137.92v18.23Z" transform="translate(-59.48 -59.11)"/><path class="cls-1" d="M177.8,157.42h45v11.67H190.83v12.09h28.1v11.68h-28.1v12.51h32.36V217H177.8Z" transform="translate(-59.48 -59.11)"/><path class="cls-1" d="M226.56,187.4v-.18c0-16.93,12.78-30.81,31.09-30.81,11.24,0,18,3.74,23.5,9.19l-8.35,9.62c-4.59-4.18-9.28-6.72-15.24-6.72-10.05,0-17.29,8.34-17.29,18.56v.16c0,10.23,7.07,18.74,17.29,18.74,6.81,0,11-2.72,15.67-7l8.35,8.43c-6.13,6.56-12.95,10.65-24.44,10.65C239.6,218.06,226.56,204.52,226.56,187.4Z" transform="translate(-59.48 -59.11)"/><path class="cls-1" d="M98.32,191.57c0,9.46-4.85,14.31-12.86,14.31s-12.86-5-12.86-14.73V157.42H59.48v34.07C59.48,209,69.28,218,85.29,218s26.14-8.86,26.14-26.91l.11-40.84-13.22,4.5Z" transform="translate(-59.48 -59.11)"/><polygon class="cls-1" points="52.07 56.69 52.07 90.2 52.09 91.04 220.73 34.39 220.73 0 52.07 56.69"/><polygon class="cls-1" points="244.98 187.31 243.41 187.31 243.41 68.98 244.98 68.98 244.98 187.31 244.98 187.31"/></svg>